HIERARCHY
ROOT Hips
{
	OFFSET -0.001795 -0.223333 0.028219
	CHANNELS 6 Xposition Yposition Zposition Zrotation Yrotation Xrotation 
	JOINT LeftUpLeg
	{
		OFFSET 0.069520 -0.091406 -0.006815
		CHANNELS 3 Zrotation Yrotation Xrotation
		JOINT LeftLeg
		{
			OFFSET 0.034277 -0.375199 -0.004496
			CHANNELS 3 Zrotation Yrotation Xrotation
			JOINT LeftFoot
			{
				OFFSET -0.013596 -0.397961 -0.043693
				CHANNELS 3 Zrotation Yrotation Xrotation
				JOINT LeftToe
				{
					OFFSET 0.026358 -0.055791 0.119288
					CHANNELS 3 Zrotation Yrotation Xrotation
					End Site
					{
						OFFSET 0.000000 0.000000 0.000000
					}
				}
			}
		}
	}
	JOINT RightUpLeg
	{
		OFFSET -0.067670 -0.090522 -0.004320
		CHANNELS 3 Zrotation Yrotation Xrotation
		JOINT RightLeg
		{
			OFFSET -0.038290 -0.382569 -0.008850
			CHANNELS 3 Zrotation Yrotation Xrotation
			JOINT RightFoot
			{
				OFFSET 0.015774 -0.398415 -0.042312
				CHANNELS 3 Zrotation Yrotation Xrotation
				JOINT RightToe
				{
					OFFSET -0.025372 -0.048144 0.123348
					CHANNELS 3 Zrotation Yrotation Xrotation
					End Site
					{
						OFFSET 0.000000 0.000000 0.000000
					}
				}
			}
		}
	}
	JOINT Spine
	{
		OFFSET -0.002533 0.108963 -0.026696
		CHANNELS 3 Zrotation Yrotation Xrotation
		JOINT Spine1
		{
			OFFSET 0.005487 0.135180 0.001092
			CHANNELS 3 Zrotation Yrotation Xrotation
			JOINT Spine2
			{
				OFFSET 0.001457 0.052922 0.025425
				CHANNELS 3 Zrotation Yrotation Xrotation
				JOINT Neck
				{
					OFFSET -0.002778 0.213870 -0.042857
					CHANNELS 3 Zrotation Yrotation Xrotation
					JOINT Head
					{
						OFFSET 0.005152 0.064970 0.051349
						CHANNELS 3 Zrotation Yrotation Xrotation
						End Site
						{
							OFFSET 0.000000 0.000000 0.000000
						}
					}
				}
				JOINT LeftShoulder
				{
					OFFSET 0.078845 0.121749 -0.034090
					CHANNELS 3 Zrotation Yrotation Xrotation
					JOINT LeftArm
					{
						OFFSET 0.090977 0.030469 -0.008868
						CHANNELS 3 Zrotation Yrotation Xrotation
						JOINT LeftForeArm
						{
							OFFSET 0.259612 -0.012772 -0.027456
							CHANNELS 3 Zrotation Yrotation Xrotation
							JOINT LeftHand
							{
								OFFSET 0.249234 0.008986 -0.001171
								CHANNELS 3 Zrotation Yrotation Xrotation
								End Site
								{
									OFFSET 0.000000 0.000000 0.000000
								}
							}
						}
					}
				}
				JOINT RightShoulder
				{
					OFFSET -0.081759 0.118833 -0.038615
					CHANNELS 3 Zrotation Yrotation Xrotation
					JOINT RightArm
					{
						OFFSET -0.096012 0.032551 -0.009143
						CHANNELS 3 Zrotation Yrotation Xrotation
						JOINT RightForeArm
						{
							OFFSET -0.253742 -0.013329 -0.021401
							CHANNELS 3 Zrotation Yrotation Xrotation
							JOINT RightHand
							{
								OFFSET -0.255298 0.007772 -0.005559
								CHANNELS 3 Zrotation Yrotation Xrotation
								End Site
								{
									OFFSET 0.000000 0.000000 0.000000
								}
							}
						}
					}
				}
			}
		}
	}
}
MOTION
Frames: 14
Frame Time: 0.050000
-0.033587 0.947762 -0.037366 0.584613 -21.804482 14.211411 5.656775 -0.262892 -14.054205 1.724091 -0.139255 -2.240812 1.487896 4.253914 11.687074 0.000000 0.000000 0.000000 -1.436598 0.879602 -8.798601 -5.532063 -0.384906 -13.005211 -3.352361 -15.721953 19.253852 0.000000 0.000000 0.000000 4.882255 0.073514 -3.179482 -6.283934 2.869402 -1.581706 -3.329836 21.597059 -3.593298 22.944226 -15.699903 -6.852472 0.000000 0.000000 0.000000 -7.524899 -6.478830 0.572989 -39.777221 -17.406487 1.697812 -69.554129 -44.164504 29.107192 0.000000 0.000000 0.000000 2.220260 4.696726 2.060485 37.271565 26.856650 5.073808 2.190781 41.823594 3.587993 0.000000 0.000000 0.000000 
-0.033884 0.947639 -0.037855 0.651393 -20.927686 14.155735 5.391371 -0.326724 -14.015245 1.914237 -0.155892 -2.291569 0.750644 3.093017 11.544558 0.000000 0.000000 0.000000 -1.275092 0.866742 -8.715021 -5.835926 -0.392993 -12.644582 -4.135949 -16.680366 19.063597 0.000000 0.000000 0.000000 5.155078 0.089904 -3.399252 -6.377000 2.923612 -1.476158 -3.052240 21.683896 -3.997986 22.783849 -15.388176 -7.189828 0.000000 0.000000 0.000000 -6.454684 -6.839971 0.853603 -39.677668 -19.268187 2.248115 -68.690330 -46.421747 30.157702 0.000000 0.000000 0.000000 2.424398 5.932468 2.609758 38.254293 29.511338 6.234489 -1.910423 41.438191 2.091563 0.000000 0.000000 0.000000 
-0.033965 0.947920 -0.037940 0.786223 -19.821714 13.850495 4.997419 -0.406077 -14.005456 1.878570 -0.161205 -2.022125 0.263935 2.273633 10.729601 0.000000 0.000000 0.000000 -1.436054 0.826893 -8.297513 -5.780555 -0.412512 -12.868752 -4.481458 -17.052758 19.216601 0.000000 0.000000 0.000000 5.308128 0.068027 -3.204398 -6.083162 2.739943 -1.927041 -2.640593 21.855057 -3.385236 22.724163 -15.460871 -7.051945 0.000000 0.000000 0.000000 -6.055508 -7.068315 0.965543 -39.389429 -21.552476 2.858987 -67.397962 -48.639478 30.962960 0.000000 0.000000 0.000000 2.631174 5.895101 2.646041 38.949005 30.633615 6.775451 -4.444653 43.690331 1.405933 0.000000 0.000000 0.000000 
-0.033844 0.948072 -0.037746 1.046057 -18.841644 13.713357 4.635787 -0.478459 -14.137204 1.810123 -0.140915 -2.224512 -0.391946 1.320544 11.046557 0.000000 0.000000 0.000000 -1.620486 0.830045 -8.283302 -5.915208 -0.428147 -12.864657 -4.823240 -17.439539 19.319436 0.000000 0.000000 0.000000 5.691549 0.097269 -3.528712 -6.228962 2.805067 -1.958699 -2.479607 21.891496 -3.123296 22.746686 -15.543973 -6.977313 0.000000 0.000000 0.000000 -5.670629 -7.389492 1.115264 -39.264758 -23.602816 3.422639 -65.820463 -50.602292 31.374120 0.000000 0.000000 0.000000 2.744862 6.015725 2.735860 39.750250 31.499367 7.291274 -6.245699 45.156131 0.869343 0.000000 0.000000 0.000000 
-0.033572 0.948113 -0.037304 1.225177 -18.328757 13.597054 4.358443 -0.529473 -14.206962 1.801233 -0.149785 -1.975422 -0.815207 0.511451 10.317377 0.000000 0.000000 0.000000 -2.029460 0.791308 -7.783005 -5.472694 -0.441605 -13.357207 -5.080108 -17.745195 19.542374 0.000000 0.000000 0.000000 5.784181 0.090985 -3.501912 -6.275076 2.774923 -2.499869 -2.584083 22.282281 -2.827762 22.848203 -15.811040 -6.670579 0.000000 0.000000 0.000000 -5.415164 -7.368052 1.104768 -39.242050 -24.527757 3.642627 -65.046575 -51.781149 31.582296 0.000000 0.000000 0.000000 3.039487 5.784111 2.711773 41.261875 31.726874 7.781428 -7.277683 45.862507 0.576788 0.000000 0.000000 0.000000 
-0.033258 0.948222 -0.036745 1.570877 -17.697377 13.409022 3.900337 -0.602369 -14.055726 1.720561 -0.120237 -2.373870 -1.240598 -0.126877 10.418804 0.000000 0.000000 0.000000 -2.482780 0.754769 -7.244224 -5.432646 -0.478113 -14.115810 -5.417520 -18.234849 20.321329 0.000000 0.000000 0.000000 5.877192 0.138637 -3.952955 -6.555771 2.917508 -2.361734 -2.621375 22.398273 -2.687369 22.839474 -16.003340 -6.310068 0.000000 0.000000 0.000000 -5.584074 -7.685279 1.148373 -38.978081 -25.026166 3.754511 -63.607604 -52.093162 30.857326 0.000000 0.000000 0.000000 3.649520 5.597616 2.734783 42.721898 31.604106 8.089928 -7.339637 45.151122 0.581541 0.000000 0.000000 0.000000 
-0.032935 0.947678 -0.036185 1.629168 -17.314088 13.341797 3.799784 -0.622260 -13.955922 1.516846 -0.102476 -2.252583 -1.226391 -0.157598 9.992497 0.000000 0.000000 0.000000 -2.671495 0.712500 -6.687768 -5.245692 -0.501759 -14.816828 -5.482630 -18.284475 20.554359 0.000000 0.000000 0.000000 6.220306 0.190452 -4.419246 -7.234774 3.223168 -2.447015 -2.514638 22.581963 -2.199309 22.224128 -15.507770 -6.388888 0.000000 0.000000 0.000000 -5.527888 -7.438203 1.050761 -38.971519 -25.291387 3.772488 -62.922281 -51.746674 30.147864 0.000000 0.000000 0.000000 4.182403 5.221844 2.657173 44.886802 31.439120 8.568560 -7.873505 43.240071 0.346982 0.000000 0.000000 0.000000 
-0.032617 0.947184 -0.035829 1.834360 -17.186387 13.252926 3.487200 -0.662570 -13.963057 1.463997 -0.089149 -2.412402 -1.351628 -0.362731 9.979605 0.000000 0.000000 0.000000 -2.992907 0.692657 -6.296702 -5.159753 -0.517915 -15.350144 -5.299893 -18.064148 20.989082 0.000000 0.000000 0.000000 6.131739 0.214186 -4.620736 -7.450067 3.346452 -2.221350 -2.610160 22.946595 -2.080029 21.605763 -14.926815 -6.591737 0.000000 0.000000 0.000000 -5.975922 -7.244110 0.842578 -38.957712 -24.660391 3.604329 -62.309716 -50.235550 28.610782 0.000000 0.000000 0.000000 5.158664 4.682574 2.581377 47.120121 31.065183 8.959051 -7.195585 42.085253 0.609212 0.000000 0.000000 0.000000 
-0.032340 0.946743 -0.035835 1.968628 -16.750137 13.168651 3.437216 -0.678929 -14.052834 1.322040 -0.081390 -2.212118 -1.518613 -0.640006 9.838996 0.000000 0.000000 0.000000 -3.106161 0.672027 -5.993370 -5.132292 -0.535728 -15.678825 -5.277054 -18.011840 21.283529 0.000000 0.000000 0.000000 5.807253 0.224453 -4.728919 -7.424152 3.347308 -2.099054 -2.583390 22.992068 -1.892605 20.946928 -14.125295 -7.188229 0.000000 0.000000 0.000000 -6.196880 -6.999212 0.681729 -39.311428 -23.966109 3.428326 -62.396737 -48.318194 27.264489 0.000000 0.000000 0.000000 5.910830 4.264208 2.516251 48.793992 29.895049 8.811742 -5.939713 41.884473 1.097597 0.000000 0.000000 0.000000 
-0.032188 0.946164 -0.036006 2.064175 -16.257486 13.337641 3.194872 -0.727251 -14.468766 1.703704 -0.121548 -2.210709 -1.852099 -1.267402 9.480394 0.000000 0.000000 0.000000 -3.107196 0.659469 -5.835263 -5.375297 -0.566516 -15.895012 -5.441776 -18.169619 21.252286 0.000000 0.000000 0.000000 5.611902 0.239721 -4.917750 -7.424554 3.359541 -1.968001 -2.738790 22.791946 -1.771473 20.138050 -13.860438 -6.348321 0.000000 0.000000 0.000000 -6.217791 -6.882281 0.624287 -39.049896 -23.491225 3.261532 -64.388523 -47.253234 27.495892 0.000000 0.000000 0.000000 6.465011 3.637244 2.307332 49.959310 27.901713 8.144677 -3.227597 44.055104 2.293020 0.000000 0.000000 0.000000 
-0.032160 0.946365 -0.036283 2.009951 -16.214245 13.290059 3.164993 -0.728727 -14.404919 1.977193 -0.136353 -2.501814 -2.033795 -1.485667 9.840509 0.000000 0.000000 0.000000 -3.132557 0.656083 -5.783856 -5.358588 -0.561545 -15.768347 -5.478087 -18.194625 21.100094 0.000000 0.000000 0.000000 5.104505 0.236410 -4.882350 -7.040324 3.240623 -1.364557 -3.096919 22.617616 -2.314657 19.428286 -13.860048 -5.006973 0.000000 0.000000 0.000000 -5.793859 -6.414337 0.544368 -38.256441 -23.388887 3.169884 -66.666330 -46.517874 28.064790 0.000000 0.000000 0.000000 6.561274 2.366794 1.731726 51.013551 25.626176 7.392696 1.180708 48.408876 4.661393 0.000000 0.000000 0.000000 
-0.032317 0.946168 -0.036429 1.705731 -15.919572 13.478174 3.547523 -0.692841 -14.596802 2.103389 -0.154813 -2.373946 -2.247519 -1.929596 9.487765 0.000000 0.000000 0.000000 -2.810332 0.632573 -5.668612 -5.512094 -0.575978 -15.782963 -5.801481 -18.564035 20.801089 0.000000 0.000000 0.000000 5.170256 0.247662 -5.020636 -7.005434 3.236791 -1.228251 -3.024026 21.936680 -2.275258 18.541863 -13.749591 -3.602785 0.000000 0.000000 0.000000 -5.100329 -6.029700 0.614686 -37.112190 -22.988009 2.911903 -71.673564 -46.124384 30.523792 0.000000 0.000000 0.000000 6.154219 1.219774 1.105852 51.157544 22.763606 6.153306 8.726506 54.329124 9.319723 0.000000 0.000000 0.000000 
-0.032579 0.946427 -0.036404 1.657212 -16.095861 13.394351 3.470740 -0.694021 -14.396896 2.345919 -0.171053 -2.557736 -2.302882 -2.042041 9.501405 0.000000 0.000000 0.000000 -2.879714 0.621540 -5.490911 -5.592232 -0.569639 -15.620937 -6.032122 -18.885348 20.757028 0.000000 0.000000 0.000000 4.975662 0.242254 -4.953004 -6.846373 3.179819 -1.053509 -3.358788 21.470354 -2.581438 17.973359 -13.719353 -2.548123 0.000000 0.000000 0.000000 -4.615314 -5.636878 0.619921 -35.775046 -22.703756 2.710903 -75.184216 -46.231580 32.666007 0.000000 0.000000 0.000000 5.827785 0.071072 0.517297 51.365040 19.887959 4.945678 19.454692 60.681046 17.228742 0.000000 0.000000 0.000000 
-0.032923 0.946546 -0.036360 1.482131 -16.468978 13.427876 3.673723 -0.661773 -14.515010 2.561767 -0.220938 -2.079346 -2.303042 -2.100518 9.429671 0.000000 0.000000 0.000000 -3.093021 0.624920 -5.389896 -5.457755 -0.549623 -15.457030 -6.129733 -19.039457 20.647241 0.000000 0.000000 0.000000 4.829570 0.265762 -5.152773 -6.459969 2.993407 -1.106090 -3.600325 21.286596 -2.433144 18.060588 -13.804312 -2.531926 0.000000 0.000000 0.000000 -4.274350 -5.199391 0.571725 -34.282845 -22.404677 2.470342 -79.073713 -45.939133 34.768760 0.000000 0.000000 0.000000 5.533911 -1.415745 -0.192462 51.055768 17.727337 3.967284 33.119685 65.632646 28.434332 0.000000 0.000000 0.000000 
